<svg xmlns="http://www.w3.org/2000/svg" viewBox="0 0 600 300">
  <!-- Tree nodes -->
  <circle cx="300" cy="50" r="20" fill="black" />
  <text x="300" y="55" font-family="Arial" font-size="14" fill="white" text-anchor="middle">2</text>
  
  <circle cx="150" cy="100" r="20" fill="red" />
  <text x="150" y="105" font-family="Arial" font-size="14" fill="white" text-anchor="middle">1</text>
  
  <circle cx="450" cy="100" r="20" fill="red" />
  <text x="450" y="105" font-family="Arial" font-size="14" fill="white" text-anchor="middle">22</text>
  
  <circle cx="75" cy="150" r="20" fill="black" />
  <text x="75" y="155" font-family="Arial" font-size="14" fill="white" text-anchor="middle">0</text>
  
  <circle cx="225" cy="150" r="20" fill="black" />
  <text x="225" y="155" font-family="Arial" font-size="14" fill="white" text-anchor="middle">12</text>
  
  <circle cx="375" cy="150" r="20" fill="black" />
  <text x="375" y="155" font-family="Arial" font-size="14" fill="white" text-anchor="middle">21</text>
  
  <circle cx="525" cy="150" r="20" fill="black" />
  <text x="525" y="155" font-family="Arial" font-size="14" fill="white" text-anchor="middle">23</text>
  
  <circle cx="175" cy="200" r="20" fill="red" />
  <text x="175" y="205" font-family="Arial" font-size="14" fill="white" text-anchor="middle">11</text>
  
  <!-- Connecting lines -->
  <line x1="300" y1="70" x2="150" y2="80" stroke="black" stroke-width="2" />
  <line x1="300" y1="70" x2="450" y2="80" stroke="black" stroke-width="2" />
  <line x1="150" y1="120" x2="75" y2="130" stroke="black" stroke-width="2" />
  <line x1="150" y1="120" x2="225" y2="130" stroke="black" stroke-width="2" />
  <line x1="450" y1="120" x2="375" y2="130" stroke="black" stroke-width="2" />
  <line x1="450" y1="120" x2="525" y2="130" stroke="black" stroke-width="2" />
  <line x1="225" y1="170" x2="175" y2="180" stroke="black" stroke-width="2" />
</svg>
