<svg xmlns="http://www.w3.org/2000/svg" viewBox="0 0 600 250">
  <!-- Root -->
  <circle cx="300" cy="30" r="20" fill="lightblue" />
  <text x="300" y="35" font-family="Arial" font-size="14" fill="black" text-anchor="middle">Root</text>
  
  <!-- Level 1: 1 and 2 -->
  <circle cx="200" cy="100" r="20" fill="lightgreen" />
  <text x="200" y="105" font-family="Arial" font-size="14" fill="black" text-anchor="middle">1</text>
  
  <circle cx="400" cy="100" r="20" fill="lightgreen" />
  <text x="400" y="105" font-family="Arial" font-size="14" fill="black" text-anchor="middle">2</text>
  
  <!-- Level 2: 1.1, 1.2, 2.1, 2.2, 2.3 -->
  <circle cx="150" cy="170" r="20" fill="lightyellow" />
  <text x="150" y="175" font-family="Arial" font-size="14" fill="black" text-anchor="middle">1.1</text>
  
  <circle cx="250" cy="170" r="20" fill="lightyellow" />
  <text x="250" y="175" font-family="Arial" font-size="14" fill="black" text-anchor="middle">1.2</text>
  
  <circle cx="350" cy="170" r="20" fill="lightyellow" />
  <text x="350" y="175" font-family="Arial" font-size="14" fill="black" text-anchor="middle">2.1</text>
  
  <circle cx="400" cy="170" r="20" fill="lightyellow" />
  <text x="400" y="175" font-family="Arial" font-size="14" fill="black" text-anchor="middle">2.2</text>
  
  <circle cx="450" cy="170" r="20" fill="lightyellow" />
  <text x="450" y="175" font-family="Arial" font-size="14" fill="black" text-anchor="middle">2.3</text>
  
  <!-- Connecting lines -->
  <line x1="300" y1="50" x2="200" y2="80" stroke="black" stroke-width="2" />
  <line x1="300" y1="50" x2="400" y2="80" stroke="black" stroke-width="2" />
  <line x1="200" y1="120" x2="150" y2="150" stroke="black" stroke-width="2" />
  <line x1="200" y1="120" x2="250" y2="150" stroke="black" stroke-width="2" />
  <line x1="400" y1="120" x2="350" y2="150" stroke="black" stroke-width="2" />
  <line x1="400" y1="120" x2="400" y2="150" stroke="black" stroke-width="2" />
  <line x1="400" y1="120" x2="450" y2="150" stroke="black" stroke-width="2" />
</svg>