<?xml version="1.0" encoding="UTF-8"?><svg height="59" viewBox="0 0 180 59" width="180" xmlns="http://www.w3.org/2000/svg" xmlns:xlink="http://www.w3.org/1999/xlink"><mask id="a" fill="#fff"><path d="m.01454545 17.9417833v-17.90687421h43.61591805v17.90687421z" fill="#fff" fill-rule="evenodd"/></mask><g fill="none" fill-rule="evenodd" transform="translate(.272727)"><path d="m46.4993939 41.1607273c-4.4133333 7.2307879-12.0853333 11.5452121-20.5524848 11.5452121-8.4669091 0-16.13939395-4.3144242-20.55200001-11.5454546l-4.62375757 4.2761213c2.58230303 3.8630303 6.03636363 7.1095757 10.06545458 9.4349091 4.574303 2.6412121 9.8002424 4.0375757 15.110303 4.0375757 5.3098182 0 10.5345454-1.3963636 15.1107879-4.0375757 3.9127272-2.2581819 7.4019394-5.8155152 9.9587878-9.5333334z" fill="#233881"/><path d="m5.9129697 1.54448485h40.0686061v-1.5219394h-40.0686061z" fill="#d5ab23"/><path d="m45.9815758 16.0579394c-.0763637 4.4681212.9738181 22.2004848-20.0341819 34.6067879-21.00848481-12.4063031-19.95830299-30.1386667-20.0344242-34.6067879v-14.51345455h40.0686061z" fill="#233881"/><path d="m8.56121212 31.6315152c2.54303028 6.2392727 7.54351518 13.220606 17.38618178 19.0332121 9.8429091-5.8126061 14.843394-12.7939394 17.3859394-19.0332121l-17.3864242-16.0785455z" fill="#d5ab23"/><path d="m22.6826667 5.50715152v7.72606058c-2.0741819-.7614545-4.5752728-.1549091-5.9023031.8223031 0-2.5512728 0-5.1035152 0-7.65430308 1.1655758-1.13551515 3.9132122-1.64266667 5.9023031-.8940606" fill="#fffffe"/><path d="m10.3069091 5.52727273v7.72606057c2.0727273-.7612121 4.574303-.1546666 5.9018182.8225455 0-2.5515152 0-5.10375759 0-7.65430304-1.1650909-1.13551515-3.9127273-1.64290909-5.9018182-.89430303" fill="#fffffe"/><path d="m24.4610909 11.6552727-.0169697-.0026666c-.2967273-.0317576-.5229091-.0487273-.6770909-.057697v-2.52000001c.1505455.0089697.3704242.02545455.6601212.05648485l.0339394.0009697c.5924849.02666666.6739394-.27539394.6739394-.27539394-.1345455-.31248485-.4332121-.45357576-.6739394-.47321212l-.0169697-.0019394c-.2967273-.032-.5229091-.04921212-.6770909-.05842424v-2.12848485h-.5241212v7.76824241c-2.8545455-.6092121-5.0123636-.2952727-6.7495758.9791515-1.7362424-1.2744242-3.8938181-1.5878788-6.74860603-.9791515v-7.76824241h-.52412121v2.12848485c-.11006061.00654545-.25551515.01672727-.43975758.03369697v-.0790303c0-.05915152-.04824242-.10739394-.1170909-.10690909l-.712.07684848c-.05721213.00387879-.10181819.04993939-.10181819.10836364v.91078788c0 .05939393.04872728.10739393.12218182.10545454l.70933334-.06933333c.05478787-.00557576.09939393-.05284849.09939393-.10860606v-.08654546c.18424243-.01745454.3299394-.02763636.43975758-.03393939v2.52072728c-.11006061.0065454-.25551515.0167273-.43975758.0341818v-.0807273c0-.0591515-.04824242-.1061818-.1170909-.1061818l-.712.0770909c-.05721213.0029091-.10181819.0499394-.10181819.1090909v.9090909c0 .059394.04872728.1078788.12218182.1064243l.70933334-.0717576c.05478787-.0036364.09939393-.0501818.09939393-.1069091v-.086303c.18424243-.0172121.3299394-.0273939.43975758-.033697v2.2749091l.32193939-.0746667c2.93890905-.6850909 5.09672725-.3890909 6.78933335.9311516l.1614545.1275151.1624243-.1275151c1.6921212-1.3202425 3.8504242-1.616 6.7898182-.9311516l.3214545.0746667v-2.2741818c.1505455.0087273.3704242.0252121.6601212.0562424l.0339394.0014546c.5924849.0266666.6739394-.2756364.6739394-.2756364-.1345455-.3122424-.4332121-.4533333-.6739394-.4727273" fill="#fffffe"/><path d="m9.6409697 51.2814545c-.28024243.3626667-.75272728.4208485-1.25648485.0315152-.27078788-.2089697-.44218182-.4334545-.54642424-.6196364l.26909091-.3483636c.02012121-.0259394.05139393-.0247273.08363636.0048485l.16387879.1449697c.01139394.0087273.02157575.0256969.00896969.048l-.11442424.16c.11054546.1362424.23272727.2581818.32484849.3292121.2620606.2024242.53527272.2710303.72.032.19781818-.2562424.14012121-.3835152-.18109091-.8846061-.22884849-.3699394-.32387879-.7052121-.07709091-1.0247272.2780606-.3597576.73624242-.3876364 1.22278791-.0116364.1784242.137697.3350303.286303.4649697.4511515l-.291394.3772121c-.0198788.0259394-.0511515.0247273-.0836363-.0048484l-.1636364-.1449697c-.0116364-.0089697-.0215758-.0259394-.0087273-.048l.1141818-.16c-.0710303-.0688485-.1442424-.1345455-.2162424-.1900606-.26763635-.2067879-.53890907-.2189091-.69236362-.0201213-.16.2072728-.0969697.3755152.18836364.8213334.30036363.4618182.29333333.7689697.07078788 1.0567272" fill="#fffffe"/><path d="m12.4317576 53.3973333c.0157576.0089697.0196363.0242425.0106666.0397576l-.2254545.382303-1.5197576-.8955151c-.0249697-.0147879-.0264242-.0409697-.0050909-.0705455l.1018182-.1510303c.0055758-.0092121.0193939-.0181818.04-.0101818l.0945454.0472727 1.152-1.9553939-.0933333-.0635152c-.0220606-.0128484-.0186667-.0404848.0012121-.0666666l.1018182-.1512727c.0092121-.0155152.024-.0196364.0397576-.0101819l1.4664242.864-.2252121.3823031c-.0147879.0252121-.0409697.0264242-.070303.0050909l-.1515152-.1018182c-.0092121-.0055758-.0179394-.0191515-.0099394-.0397576l.0472728-.0947879-.7803637-.4596363-.4375757.7425454.8838788.5207273-.1701819.2882424-.8836363-.5207272-.481697.8179393.8334546.4911516.0635151-.0933334c.0130909-.0220606.0402424-.0186666.0666667.0012122z" fill="#fffffe"/><path d="m15.6140606 54.8841212c.0167273.0072727.0225455.0215758.0155152.038303l-.176.4075152-1.6201213-.6986667c-.0266666-.0116363-.0312727-.0375757-.0135757-.0693333l.0819394-.1626667c.0043636-.0099394.0169697-.020606.038303-.0152727l.0996364.0351515.8991515-2.0843636-.1006061-.051394c-.0235151-.0101818-.0235151-.0378181-.0070303-.0664242l.0819394-.1629091c.0072727-.0164848.0215758-.022303.0383031-.0150303l1.5633939.6741818-.176.4075152c-.0113939.0269091-.0373333.0315151-.0690909.0138182l-.1626667-.0819394c-.0101818-.0046061-.020606-.0169697-.0152727-.0385455l.0349091-.0996364-.8315152-.3587878-.3415757.7917575.9418182.4063031-.1323637.3073939-.9420606-.4065454-.376.872.8884849.3832727.0516363-.1006061c.0099394-.0235151.0375758-.0235151.0661818-.0070303z" fill="#fffffe"/><path d="m19.9258182 53.7852121c.0278788.0077576.0358788.0327273.0227879.0666667l-.0598788.1721212c-.0031515.0104242-.0140606.0225455-.0358788.0201212l-.1032727-.0215757-1.1389091.6768484.4993939 1.5003637.1030303.036606c.0247273.0070303.0281212.0344243.0157576.0647273l-.0596364.1721212c-.0050909.017697-.0184242.0252121-.0358788.0201212l-.3745454-.1052121-.4928485-1.4836364-.3170909.1866667-.2038788.7243637.1064242.0375757c.0244849.0070303.0283637.0344243.016.0649697l-.0598787.1721212c-.005091.0174546-.0184243.0249697-.0358788.0201212l-.5985455-.1684848c-.0278788-.0077576-.0361212-.0329697-.0227879-.0669091l.0596364-.1721212c.0031515-.0104243.0140606-.0225455.0361212-.0198788l.1032727.0215757.6147879-2.1842424-.1064242-.0378182c-.0247273-.0067878-.0283637-.0341818-.0157576-.0647272l.0598788-.1721212c.0048485-.0174546.0181818-.0249697.0356363-.0201213l.5985455.1684849c.0278788.0077576.0361212.0327273.0227879.0669091l-.0596364.1721212c-.0031515.0104242-.0140606.022303-.0358788.0201212l-.1035151-.0215757-.2749091.9764848 1.1917576-.7185455-.1064243-.0375757c-.0242424-.0067879-.0281212-.0341818-.0155151-.0647273l.0596363-.1721212c.0048485-.0174545.0184243-.0249697.0358788-.0201212z" fill="#fffffe"/><path d="m26.3333333 54.5270303c.0293334.0014545.0424243.024.0370909.0603636l-.020606.1808485c-.0004849.0111515-.0082424.0252121-.0305455.0276364l-.1020606.0019394-.7398788 2.384c-.0259394.0787879-.0938181.1226666-.1735757.1185454l-.2831515-.0256969c-.0397576-.0021819-.0528485-.0283637-.0618182-.0688485l-.3830303-2.1512727-.0041212-.0002425-.5924849 2.0055758c-.0220606.0717576-.0746667.1709091-.201697.1607273l-.272-.0252122c-.0324848-.0014545-.0533333-.0208484-.0615757-.068606l-.467394-2.4979394-.1083636-.0130909c-.025697-.0014546-.0351515-.027394-.0298182-.0598788l.0203637-.1808485c.0007272-.0184242.0123636-.0286061.0307878-.0276364l.5992728.0312728c.0290909.0014545.0424242.024.0370909.0601212l-.0203637.1810909c-.0007272.0109091-.0089697.0249697-.0307878.0276364l-.1020606.0019393.3546666 2.1423031.003394.0002424.6358788-2.2c.0356363-.1255758.0996363-.1660606.1866666-.1578182l.2065455.0218182c.0361212.0055758.0496969.0244848.0581818.072l.4060606 2.3418182.0033939.0002424.5975758-2.0926061-.1083636-.0128484c-.025697-.0014546-.035394-.0276364-.0300606-.0601213l.0203636-.1810909c.0009697-.0181818.0126061-.0283636.0307879-.0273939z" fill="#fffffe"/><path d="m28.6128485 56.8998788c.0252121-.0019394.038303.022303.0373333.0552727l.0046061.182303c.0014545.0179394-.0084849.0298182-.0266667.0315152l-.6196364.0518788c-.0290909.0024242-.0450909-.0179394-.0448484-.0545455l-.0043637-.1820606c-.0007272-.0109091.0050909-.0261818.0264243-.0315151l.1044848-.016-.1900606-2.2610909-.1132121.0021818c-.0254546.0021818-.0380606-.022303-.0373333-.0550303l-.0043637-.1823031c-.0016969-.0181818.0082424-.0298181.0264243-.0312727l.6196363-.0523636c.0290909-.0021818.0453334.0181818.0446061.0545454l.004606.1823031c.0007273.0106666-.0050909.0259394-.0266666.0312727l-.1044849.0162424.1903031 2.2608485z" fill="#fffffe"/><path d="m32.0443636 55.8526061c.0867879.4496969-.1820606.8421818-.8070303.9626666-.3357575.0644849-.6169697.0446061-.8256969-.0002424l-.0831516-.4322424c-.0060606-.032.0152728-.0545455.0589091-.059394l.2169697-.0269091c.0143031-.0026666.0334546.0009697.041697.0252122l.0446061.1915151c.1750303.0070303.3471515-.0038788.4613333-.0259394.3250909-.0625454.5570909-.2220606.4998788-.5185454-.0610909-.3175758-.1949091-.3585455-.7825455-.4489697-.428606-.0729697-.7427878-.2235152-.8191515-.6198788-.0858182-.446303.1963637-.808.7997576-.9241212.2213333-.0426667.4361212-.0618182.6455758-.0501818l.0901818.4676363c.0060606.032-.0155152.0547879-.0591515.059394l-.2167273.0271515c-.014303.0026666-.033697-.0009697-.0421818-.0254546l-.0441212-.1912727c-.0984243.0077576-.1961213.0191515-.2855758.0363636-.3318788.064-.52.259394-.4727273.505697.049697.2572121.2172121.3212121.7403637.4019394.5449697.08.7699394.2884849.8387878.6455758" fill="#fffffe"/><path d="m34.7163636 55.5612121c.7306667-.2455757.7306667-.8055757.5464243-1.3536969-.2038788-.6065455-.4838788-.9612122-1.2770909-.6950304l-.2996364.1008485.6926061 2.0613334zm-.8290909-2.3529697c1.0686061-.3590303 1.5204849.0606061 1.7915152.867394.3367273 1.0029091-.027394 1.5168484-.9546667 1.8281212l-.7306667.2455757c-.0276363.0094546-.0484848-.0067878-.0564848-.0421818l-.0475152-.176c-.0036363-.0104242-.0014545-.0264242.0181819-.0368485l.0976969-.0404848-.7226666-2.1507879-.1093334.0288485c-.024.008-.0424242-.0123636-.0494545-.0446061l-.0475152-.176c-.0058181-.0172121.0009697-.0310303.0181819-.0368485z" fill="#fffffe"/><path d="m37.4387879 53.3202424c.2133333.4254546.5883636.9289697 1.1214545.6613334.441697-.2218182.4441212-.6950303.1423031-1.296-.2184243-.4356364-.5951516-.9175758-1.1183031-.6550303-.532606.2676363-.3575757.8671515-.1454545 1.2896969zm1.6504242-.820606c.4322424.8608484.2608485 1.4676363-.376 1.7873939-.6300606.3163636-1.2322424.081697-1.6579394-.766303-.3069091-.6109091-.4121212-1.3958788.3806061-1.7939394.6792727-.3408485 1.2715151.012606 1.6533333.7728485z" fill="#fffffe"/><g transform="translate(0 34.909091)"><path d="m43.4671515 16.0550303c.0208485-.0147879.0443637-.0002424.0606061.0283636l.0962424.1546667c.0106667.0147879.008.0300606-.0070303.0407273l-.4979394.3536969c-.0235151.0167273-.0482424.0072728-.0661818-.0244848l-.0964849-.1544242c-.0065454-.0089697-.0087272-.0249697.0070303-.0404849l.0787879-.0649697-1.0392727-1.3939394.3767273 1.7486061c.0135757.0569697.0135757.1195151-.0307879.1510303-.0327273.0232727-.0831515.0589091-.1149091.0770909-.0346667.0203636-.0586667.024-.0894546.0058182l-1.5854545-.9570909.968 1.4443636.0962424-.0591515c.0208485-.0147879.0443637-.0004849.0601212.0283636l.0967273.1546667c.0104243.0147879.0077576.0298182-.0067879.0404848l-.486303.3452122c-.0237576.0167272-.0484848.0075151-.0664242-.0242425l-.0964849-.1544242c-.006303-.0089697-.0084848-.0252121.0072727-.0404849l.0812122-.0671515-1.2482425-1.8962424-.0933333.0572121c-.0206061.0147879-.0443636.0002424-.0603636-.0283636l-.0964849-.1546667c-.0104242-.0147879-.0077576-.0300606.0070303-.0407273l.3556364-.252606c.0150303-.0104243.0300606-.0077576.0443636-.0002424l1.8654546 1.1192727-.4613334-2.0940606c-.0070303-.0351515.0014546-.0545455.0278788-.0734546l.3706667-.2632727c.0237576-.0167273.0482424-.0075151.0661818.0244849l.0964849.1544242c.006303.0089697.0089697.0249697-.0065455.0407273l-.0819394.0669091 1.376 1.8058181z" fill="#fffffe" mask="url(#a)"/><path d="m1.90909091 8.43369697 2.94593939-2.72169697.66860606-.62909091.37309091.61721212c.64266667 1.06545455 1.35903031 2.0649697 2.1369697 2.99684849l.99951515-.90909091c-1.35515151-1.63490909-2.46133333-3.47175758-3.27224242-5.46303031-.3059394-.75054545-.56533334-1.51515151-.77987879-2.28993939l-1.60266667 4.11515152-3.37842424.47296969c.00533333.01430303.01042424.02836364.01575758.04169697z" fill="#233881" mask="url(#a)"/></g><path d="m41.6121212 5.50715152v7.72606058c-2.0741818-.7614545-4.5752727-.1549091-5.902303.8223031 0-2.5512728 0-5.1035152 0-7.65430308 1.1655757-1.13551515 3.9132121-1.64266667 5.902303-.8940606" fill="#fffffe"/><path d="m29.2363636 5.52727273v7.72606057c2.0727273-.7612121 4.5743031-.1546666 5.9018182.8225455 0-2.5515152 0-5.10375759 0-7.65430304-1.1650909-1.13551515-3.9127273-1.64290909-5.9018182-.89430303" fill="#fffffe"/><path d="m43.3905455 11.6552727-.0169697-.0026666c-.2967273-.0317576-.5229091-.0487273-.677091-.057697v-2.52000001c.1505455.0089697.3704243.02545455.6601213.05648485l.0339394.0009697c.5924848.02666666.6739393-.27539394.6739393-.27539394-.1345454-.31248485-.4332121-.45357576-.6739393-.47321212l-.0169697-.0019394c-.2967273-.032-.5229091-.04921212-.677091-.05842424v-2.12848485h-.5241212v7.76824241c-2.8545454-.6092121-5.0123636-.2952727-6.7495757.9791515-1.7362424-1.2744242-3.8938182-1.5878788-6.7486061-.9791515v-7.76824241h-.5241212v2.12848485c-.1100606.00654545-.2555151.01672727-.4397576.03369697v-.0790303c0-.05915152-.0484848-.10739394-.1170909-.10690909l-.712.07684848c-.0574545.00387879-.1018182.04993939-.1018182.10836364v.91078788c0 .05939393.0487273.10739393.1221819.10545454l.7093333-.06933333c.0547879-.00557576.0993939-.05284849.0993939-.10860606v-.08654546c.1842425-.01745454.3299394-.02763636.4397576-.03393939v2.52072728c-.1100606.0065454-.2555151.0167273-.4397576.0341818v-.0807273c0-.0591515-.0484848-.1061818-.1170909-.1061818l-.712.0770909c-.0574545.0029091-.1018182.0499394-.1018182.1090909v.9090909c0 .059394.0487273.1078788.1221819.1064243l.7093333-.0717576c.0547879-.0036364.0993939-.0501818.0993939-.1069091v-.086303c.1842425-.0172121.3299394-.0273939.4397576-.033697v2.2749091l.3219394-.0746667c2.9389091-.6850909 5.0967273-.3890909 6.7893333.9311516l.1614546.1275151.1624242-.1275151c1.6923637-1.3202425 3.8504243-1.616 6.7898182-.9311516l.3214545.0746667v-2.2741818c.1505455.0087273.3704243.0252121.6601213.0562424l.0339394.0014546c.5924848.0266666.6739393-.2756364.6739393-.2756364-.1345454-.3122424-.4332121-.4533333-.6739393-.4727273" fill="#fffffe"/><path d="m49.96 43.3427879-2.9459394-2.721697-.6686061-.6290909-.3730909.6172121c-.6426666 1.0654546-1.3590303 2.0649697-2.1369697 2.9968485l-.9995151-.9090909c1.3551515-1.6349091 2.4613333-3.4717576 3.2722424-5.4630303.3059394-.7505455.5653333-1.5151515.7798788-2.2899394l1.6026667 4.1151515 3.3784242.4729697c-.0053333.014303-.0104242.0283636-.0155151.041697z" fill="#233881"/><path d="m26.966303 37.8038788c1.1827879.5915151 2.1970909.8841212 2.8101818.8448485.0184243-.0009697.0635152-.0019394.0824243-.0029091.209697-.0152727.48-.0734546.681697-.1951515.1837575-.1103031.3059394-.2276364.4106666-.3791515.1212121-.1781819.1738182-.3292122.1837576-.5175758-.0768485.0293333-.1529697.0526061-.224.0705454-.0189091.0046061-.0654545.0138182-.0843636.0179394-.6870303.107394-1.5469091.0143031-2.7333334-.3071515-.1936969.217697-.5932121.3389091-1.0179394.2375758-.0356363.0795151-.0715151.1549091-.1090909.2310303" fill="#fffffe"/><path d="m28.6472727 31.3124848c-.0307879.0746667-.064.1461819-.1052121.2196364-.1764848.3059394-.4189091.5335758-.6632727.6538182.0029091.078303.0038788.1563636.0048485.2353939.5088484-.2215757 1.0254545-.4763636 1.5396363-.7527272 1.9081212-1.0227879 3.2543031-2.1597576 3.672-2.9687273.0104243-.019394.0358788-.0654546.0453334-.0853333.1136969-.2181819.216-.525091.216-.8004849 0-.4678788-.1990303-.8756364-.4981819-1.0938182-.3944242.9166061-1.1168484 1.9544243-2.1064242 2.9258182-.6715152.6601212-1.3907879 1.2232727-2.1047273 1.6664242" fill="#fffffe"/><path d="m28.3895758 36.1292121c-.1675152.1837576-.4581819.3527273-.7995152.3830303-.0693333.0055758-.1311515.0094546-.1975758.0075152-.0198787.0695757-.0412121.1374545-.064.2055757 1.7156364.4790303 3.1488485.5823031 3.8821819.3471515.0179394-.0048484.0644848-.0181818.0824242-.0237575.2111515-.0676364.472-.1975758.6477576-.3721212.1590303-.1604849.2547879-.3105455.3229091-.4938182.0780606-.2106667.052606-.3907879.052606-.3907879-.072.0501818-.4295757.1658182-.4295757.1658182-.6722424.2448485-1.8210909.2950303-3.4972121.1713939" fill="#fffffe"/><path d="m33.2295758 31.6792727c-.6329697.6962425-2.2647273 1.4693334-4.4264243 1.9893334-.1384242.2210909-.3949091.4254545-.7221818.5444848-.094303.0349091-.1888485.0596364-.2807273.0761212-.0084848.0734546-.0174545.1420606-.0261818.2145455.1704242-.0058182.3406061-.0138182.512-.0232728 2.1624242-.1212121 3.8625455-.5832727 4.5827879-1.1396363.0179394-.0128485.0610909-.0441212.0775757-.0562424.1941819-.1510303.4186667-.3859394.5350303-.6356364.105697-.2266667.147394-.4203636.1493556-.6366061.0011899-.2501818-.0470525-.4329697-.1597798-.6203636-.0562424.0785455-.1144242.1515152-.1713939.2135758-.0150303.0174545-.0538182.0562424-.0700606.0736969" fill="#fffffe"/><path d="m29.4809697 39.2077576c-.681697-.0155152-1.6618182-.3243637-2.8067879-.8952728-.0533333.0889697-.1059394.1743031-.1619394.2574546.8812121.4598788 1.6746667.7733333 2.323394.9253333-.0312728.0349091-.0642425.0695758-.1032728.1054546-.1362424.1250909-.2816969.2106666-.4848484.2780606-.2237576.0729697-.5013334.0695757-.7086061.0344242-.0189091-.0021818-.0630303-.0113939-.0809697-.0150303-.384-.0625454-.8935758-.2906666-1.4749091-.6637576-.0683636.069091-.1369697.1338182-.2065455.195394.6060607.4024242 1.1478788.668606 1.5747879.7764848-.1107879.0872728-.2225454.1410909-.3810909.1847273-.1878788.049697-.4147879.0346667-.5852121-.0019394-.0152727-.0029091-.0501818-.0128485-.0654545-.0155151-.2947879-.0649697-.6756364-.2552728-1.1054546-.5544243-.0967273.0492121-.1951515.0904243-.2926061.1258182-.1847272.0550303-.444606.1066667-.6358787.1066667-.5716364 0-1.1141819-.2601212-1.5975758-.7272728-.0193939-.0181818-.1609697.1272728-.1415758.145697.4795152.5246061 1.1064243.8206061 1.7272728.8206061.2012121 0 .6899394-.0705455.8712727-.1832728.5112727.3546667.928.5231516 1.2678788.5796364.0164848.0026667.0564848.0109091.0729697.0130909.1883636.0298182.4392727.033697.6429091-.0324848.1832727-.0596364.3153939-.1379394.4390303-.251394.0501818-.0465454.1008485-.0962424.1362424-.1435151.216.024.4753939.0179394.6904242-.0511515.224-.0729697.384-.1689697.5335758-.3064243.1246061-.1141818.2424242-.2196363.3006061-.3452121.3357575.0138182.6-.0421818.6-.0421818.126303-.0203637.2707878-.0632728.3915151-.1709091.086303-.0780606.1444849-.1490909.1818182-.243394-.2664242.0783031-.5568485.1052122-.7949091.1013334-.0269091-.001697-.0969697-.0050909-.1260606-.0070303" fill="#fffffe"/><path d="m30.5718788 31.5694545c-.5459394.3343031-1.1020606.6208485-1.6533333.8547879-.0620607.107394-.1401213.2152728-.2310303.3161212-.2453334.2722425-.5398788.4489697-.8126061.5100606-.0031515.0766061-.008.1544243-.0111515.2305455.3161212-.0715152.6375757-.1529697.9587879-.2395152 2.0889697-.5682424 3.6562424-1.3735757 4.2450909-2.068606.014303-.0157576.0501818-.0550303.0635151-.072.1595152-.1876364.3289697-.4630303.3915152-.7316364.1052121-.456.0227878-.8198788-.2186667-1.0991515-.5905455.8031515-1.5507879 1.5740606-2.7321212 2.2993939" fill="#fffffe"/><path d="m33.064 33.673697c-.0181818.0147878-.0705455.052606-.0882424.0661818-.6906667.5338182-2.2310303.9636364-4.2230303 1.1345454l-.001697.0009697c-.1330909.1292122-.3020606.2807273-.4952727.3711516-.2089697.0972121-.4223031.1553939-.6203637.1704242-.0140606.0773333-.030303.1221818-.0458181.1985455.0130909.0014545.0235151.0019393.0378181.0041212 2.1510303.2552727 3.905697.0967272 4.7110303-.3270303.0201213-.0099394.0678788-.0322425.0863031-.0412122.2186666-.1170909.4792727-.3078787.6373333-.5335757.1430303-.2050909.2181818-.3883637.2579394-.6004849.0431515-.2465454.0307879-.4152727-.0472727-.6201212-.0690909.0676364-.1415758.1248485-.2087273.1764849" fill="#fffffe"/><path d="m28.6974545 29.5915152c.0009697.2555151-.08.5515151-.2409697.8298181-.1752727.3020606-.4113939.5311515-.6538181.6516364.008.0809697.016.1609697.0230303.2431515.8564848-.468606 1.7415757-1.1207273 2.5527272-1.9173333.969697-.953697 1.6761213-1.9626667 2.0623031-2.8606061.1066666-.2460606.1592727-.5442424.1379394-.8642424-.0450909-.6504242-.3849697-1.1905455-.8181819-1.3699394.0084849.1236364.0026667.2535758-.0147878.3864242-.0950303.9052122-.9345455 2.4598788-2.3408485 4.1069091-.232.2712728-.467394.5384243-.707394.7941819" fill="#fffffe"/><path d="m29.0431515 28.5711515c1.3871515-1.6644848 2.2072727-3.2288485 2.2916364-4.1355151.0690909-.5687273-.075394-1.0957576-.3949091-1.281697-.025697.8094545-1.1241212 2.7815758-2.8654546 4.9883636.1631516.3066667.0884849.8225455-.1762424 1.2741818-.0884848.1524849-.1410909.2053334-.2981818.3624243.0203636.0989091.0387879.2038788.0567273.3047273.4700606-.457697.9374545-.9730909 1.3864242-1.5124849" fill="#fffffe"/><path d="m18.0659394 29.5161212c-.0426667-.0167273-.0853333-.0317576-.1284849-.0436364.0184243.1927273.019394.4014546.0184243.6179394-.0041212.5335758-.073697 1.0407273-.1832727 1.457697-.0278788.1117576.0213333.219394.1170909.2581818.030303.0123637.0644848.016.096.0118788l.0019394-.0058182c.1704242-.3895757.3907878-.8181818.6557575-1.2550303.0489697-.0814545.0972122-.1609697.1459394-.2392727-.0889697-.3427879-.3481212-.6494545-.7233939-.8019394" fill="#1a1919"/><path d="m32.9464242 33.2846061c-.0164848.0121212-.0596363.0433939-.0775757.0562424-.7202424.5563636-2.4203637 1.0184242-4.5827879 1.1396363-.1713939.0094546-.3415758.0174546-.512.0232728.0087273-.0724849.017697-.1410909.0261818-.2145455.0918788-.0164848.1864243-.0412121.2807273-.0761212.3272727-.1190303.5837576-.3233939.7221818-.5444848 2.161697-.52 3.7934546-1.2930909 4.4264243-1.9893334.0162424-.0174545.0550303-.0562424.0700606-.0736969.0569697-.0620606.1151515-.1350303.1713939-.2135758.1127273.1873939.1609697.3701818.1597798.6203636-.0019616.2162425-.0436586.4099394-.1493556.6366061-.1163636.249697-.3408484.4846061-.5350303.6356364zm.1941819-4.6700606c-.0094546.0198787-.0349091.0659393-.0453334.0853333-.4176969.8089697-1.7638788 1.9459394-3.672 2.9687273-.5141818.2763636-1.0307879.5311515-1.5396363.7527272-.0009697-.0790303-.0019394-.1570909-.0048485-.2353939.2443636-.1202424.4867879-.3478788.6632727-.6538182.0412121-.0734545.0744242-.1449697.1052121-.2196364.7139394-.4431515 1.4332121-1.006303 2.1047273-1.6664242.9895758-.9713939 1.712-2.0092121 2.1064242-2.9258182.2991516.2181818.4981819.6259394.4981819 1.0938182 0 .2753939-.1023031.582303-.216.8004849zm.3820606 1.7546666c-.0625455.2686061-.232.544-.3915152.7316364-.0133333.0169697-.0492121.0562424-.0635151.072-.5888485.6950303-2.1561212 1.5003636-4.2450909 2.068606-.3212122.0865455-.6426667.168-.9587879.2395152.0031515-.0761212.008-.1539394.0111515-.2305455.2727273-.0610909.5672727-.2378181.8126061-.5100606.090909-.1008484.1689696-.2087272.2310303-.3161212.5512727-.2339394 1.1073939-.5204848 1.6533333-.8547879 1.1813333-.7253333 2.1415757-1.4962424 2.7321212-2.2993939.2414545.2792727.3238788.6431515.2186667 1.0991515zm-1.7621819-6.0652121c.4332122.1793939.773091.7195152.8181819 1.3699394.0213333.32-.0312728.6181818-.1379394.8642424-.3861818.8979394-1.0926061 1.9069091-2.0623031 2.8606061-.8111515.796606-1.6962424 1.4487273-2.5527272 1.9173333-.0070303-.0821818-.0150303-.1621818-.0230303-.2431515.2424242-.1204849.4785454-.3495758.6538181-.6516364.1609697-.278303.2419394-.574303.2409697-.8298181.24-.2557576.475394-.5229091.707394-.7941819 1.406303-1.6470303 2.2458182-3.2016969 2.3408485-4.1069091.0174545-.1328484.0232727-.2627878.0147878-.3864242zm-.4256969.1316364c-.0843637.9066666-.9044849 2.4710303-2.2916364 4.1355151-.4489697.539394-.9163636 1.0547879-1.3864242 1.5124849-.0179394-.1008485-.0363637-.2058182-.0567273-.3047273.1570909-.1570909.209697-.2099394.2981818-.3624243.2647273-.4516363.339394-.9675151.1762424-1.2741818 1.7413334-2.2067878 2.8397576-4.1789091 2.8654546-4.9883636.3195151.1859394.464.7129697.3949091 1.281697zm-1.4758788 14.2101818c-.0189091.0009697-.064.0019394-.0824243.0029091-.6130909.0392727-1.6273939-.2533334-2.8101818-.8448485.0375758-.0761212.0734546-.1515152.1090909-.2310303.4247273.1013333.8242425-.0198788 1.0179394-.2375758 1.1864243.3214546 2.0463031.4145455 2.7333334.3071515.0189091-.0041212.0654545-.0133333.0843636-.0179394.0710303-.0179393.1471515-.0412121.224-.0705454-.0099394.1883636-.0625455.3393939-.1837576.5175758-.1047272.1515151-.2269091.2688484-.4106666.3791515-.201697.1216969-.472.1798788-.681697.1951515zm-.030303.8819394s-.2642425.056-.6.0421818c-.0581819.1255758-.176.2310303-.3006061.3452121-.1495758.1374546-.3095758.2334546-.5335758.3064243-.2150303.0690909-.4744242.0751515-.6904242.0511515-.0353939.0472727-.0860606.0969697-.1362424.1435151-.1236364.1134546-.2557576.1917576-.4390303.251394-.2036364.0661818-.4545455.062303-.6429091.0324848-.0164849-.0021818-.0564849-.0104242-.0729697-.0130909-.3398788-.0564848-.7566061-.2249697-1.2678788-.5796364-.1813333.1127273-.6700606.1832728-.8712727.1832728-.6208485 0-1.2477576-.296-1.7272728-.8206061-.0193939-.0184242.1221819-.1638788.1415758-.145697.4833939.4671516 1.0259394.7272728 1.5975758.7272728.1912727 0 .4511515-.0516364.6358787-.1066667.0974546-.0353939.1958788-.0766061.2926061-.1258182.4298182.2991515.8106667.4894546 1.1054546.5544243.0152727.0026666.0501818.012606.0654545.0155151.1704242.0366061.3973333.0516364.5852121.0019394.1585455-.0436364.270303-.0974545.3810909-.1847273-.4269091-.1078788-.9687272-.3740606-1.5747879-.7764848.0695758-.0615758.1381819-.126303.2065455-.195394.5813333.373091 1.0909091.6012122 1.4749091.6637576.0179394.0036364.0620606.0128485.0809697.0150303.2072727.0351515.4848485.0385455.7086061-.0344242.2031515-.067394.348606-.1529697.4848484-.2780606.0390303-.0358788.072-.0705455.1032728-.1054546-.6487273-.152-1.4421819-.4654545-2.323394-.9253333.056-.0831515.1086061-.1684849.1619394-.2574546 1.1449697.5709091 2.1250909.8797576 2.8067879.8952728.0290909.0019394.0991515.0053333.1260606.0070303.2380606.0038788.5284849-.0230303.7949091-.1013334-.0373333.0943031-.0955152.1653334-.1818182.243394-.1207273.1076363-.2652121.1505454-.3915151.1709091zm2.4351515-3.3449697c-.0681212.1832727-.1638788.3333333-.3229091.4938182-.1757576.1745454-.4366061.3044848-.6477576.3721212-.0179394.0055757-.0644848.0189091-.0824242.0237575-.7333334.2351516-2.1665455.1318788-3.8821819-.3471515.0227879-.0681212.0441213-.136.064-.2055757.0664243.0019394.1282425-.0019394.1975758-.0075152.3413333-.030303.632-.1992727.7995152-.3830303 1.6761212.1236364 2.8249697.0734546 3.4972121-.1713939 0 0 .3575757-.1156364.4295757-.1658182 0 0 .0254546.1801212-.052606.3907879zm1.0562424-2.0654546c-.0397576.2121212-.1149091.395394-.2579394.6004849-.1580606.225697-.4186667.4164848-.6373333.5335757-.0184243.0089697-.0661818.0312728-.0863031.0412122-.8053333.4237575-2.56.582303-4.7110303.3270303-.014303-.0021819-.0247272-.0026667-.0378181-.0041212.0155151-.0763637.0317575-.1212122.0458181-.1985455.1980606-.0150303.411394-.0732121.6203637-.1704242.1932121-.0904243.3621818-.2419394.4952727-.3711516l.001697-.0009697c1.992-.170909 3.5323636-.6007272 4.2230303-1.1345454.0176969-.0135758.0700606-.051394.0882424-.0661818.0671515-.0516364.1396364-.1088485.2087273-.1764849.0780606.2048485.0904242.3735758.0472727.6201212zm.8802424-2.144c-.0232727-.3369697-.1301818-.6518788-.2930909-.9081212.201697-.2967273.3078788-.6727273.2935758-1.0969697-.0145455-.460606-.179394-.8833939-.4375758-1.198303.1658182-.2935758.249697-.6395152.2363637-1.0307879-.0237576-.6904242-.3527273-1.2906667-.8361213-1.6050909.0164849-.1318788.0203637-.2598788.0174546-.3992727-.0312727-1.0373334-.4790303-1.6909091-1.198303-1.9694546-.1529697-.7449697-.6543031-1.4324848-1.1018182-1.7682424-.544 2.3069091-2.2567273 4.5248485-2.8741818 5.4012121-.9932122 1.4092122-1.2252122 2.7493334-1.7784243 4.3663031-.6528485 1.9076363-1.1107879 3.9347878-2.8591515 5.1355151 0-.1900606.0104242-.3854545.0329697-.5881212.288-2.5990303 2.3883636-6.8298182 1.6278788-9.2967273-.0458182-.1493333-.0989091-.296-.1629091-.4380606-.7486061-1.6911515-2.4511515-1.9544242-4.1951515-1.1677576-1.0860606.4892122-2.2147879.9032728-2.7343031 2.0882425-.2087272.4770909-.2826666.9648485-.234909 1.382303.0104242.0933333.0610909.1684848.1408484.1953939.1083637.0370909.2315152-.0269091.2957576-.1473939.0482424-.0826667.0809697-.1985455.0894546-.3260606 0-.0053333.0009697-.0101818.0019394-.0155152.0019393-.0281212.0075151-.0593939.018909-.0889697.0550303-.1340606.1995152-.2019393.3243637-.152.124606.051394.1793939.2014546.1255757.3350303-.0094545.0237576-.0208484.0441213-.0361212.0642425-.0317575.0431515-.0627879.0928485-.0930909.1456969-.0654545.1204849-.105697.2397576-.1204848.3369697-.0201212.1391516.0569697.2814546.1915151.3386667.0089697.0048485.0230303.0113939.0324849.0155152.4928485.2009697 1.0795151-.0555152 1.4322424-.5781819.1294545-.1949091.2526061-.4169697.3636364-.6564848.174303-.3745455.1653333-.7561212.4489697-1.0882424.4768484-.5544243 1.8683636-.9178182 2.4734545-.1832728 1.1767273 1.4281213-.1316364 3.275394-.9473939 4.4899394-1.027394 1.529697-2.4574546 3.2812122-3.1762425 5.0036364-1.8787878 4.5010909 1.3277576 8.9173333 6.4986667 8.9173333 3.2841212 0 5.3338182-1.4305454 6.4991515-3.1393939-2.2429091-.1745455-3.462303-1.6259394-3.462303-1.6259394s.4484848-.0453333.7391515-.5326061c0 0 .209697-.0242424.3968485-.0482424.452606-.0591515.8669091-.2906667 1.0397576-.7949091.1466666-.4256969.1553939-.6928485.1553939-.6928485s.3020606-.1267878.4780606-.5345454c.0993939-.2310303.1260606-.345697.1270303-.5791515.5192727-.1745455.9161212-.6206061 1.134303-1.1864243.1146667-.3001212.1374546-.4441212.1105455-.7338182.5842424-.2935757 1.024-1.1236363 1.0012121-1.796606-.0070303-.2295758-.0647273-.4368485-.1495757-.6324849.2613333-.304.3973333-.7282424.3636363-1.216z" fill="#1a1919"/><g fill="#233881"><path d="m65.473697 1.54860606v1.41866667c0 .09309091-.0698182.13963636-.1861818.12775757l-.5813334-.03466666c-.0349091 0-.0814545-.02327273-.0928485-.09309091l-.0237575-.33745455v-.01139394h-1.7672728v7.06981818l.3604849.02327273c.0814545 0 .1161212.08145455.1047273.1859394l-.0349091.58133335c0 .0584242-.0351516.0930909-.0930909.0930909h-1.9883637c-.0928485 0-.1393939-.0695758-.128-.1861818l.0351515-.58109094c0-.03490909.0230303-.08169697.0928485-.09309091l.3372121-.02327273v-7.06981818h-1.6397575l-.0230303.36024243c0 .08169697-.0812122.11636363-.1859394.10496969l-.5815758-.03515151c-.0581818 0-.0928485-.03466667-.0928485-.09260606v-1.40727273z"/><path d="m74.1367273 9.71151515c.0814545 0 .1161212.08145455.1044848.1859394l-.0349091.58133335c0 .0584242-.0346666.0930909-.0930909.0930909h-1.9883636c-.0928485 0-.139394-.0695758-.1277576-.1861818l.0349091-.58109094c0-.03490909.0232727-.08169697.0928485-.09309091l.3374545-.02327273v-3.12775757h-4.0467878v3.12775757l.3604848.02327273c.081697 0 .1163636.08145455.1047273.1859394l-.0349091.58133335c0 .0584242-.0351515.0930909-.0930909.0930909h-1.9883637c-.0930909 0-.1393939-.0695758-.128-.1861818l.0349091-.58109094c0-.03490909.0235152-.08169697.0930909-.09309091l.3374546-.02327273v-7.256l-.3604849-.0230303c-.0814545 0-.1163636-.08145454-.1049697-.18618182l.0349091-.58133333c0-.05818182.0351515-.09309091.0930909-.09309091h1.9883637c.0930909 0 .1396363.07006061.128.18593939l-.0349091.58157576c0 .03466667-.0230303.08121212-.0930909.09309091l-.3372121.0230303v3.04654546h4.0467878v-3.04654546l-.3604848-.0230303c-.0814546 0-.1163637-.08145454-.1047273-.18618182l.0349091-.58133333c0-.05818182.0346667-.09309091.0928485-.09309091h1.9883636c.0930909 0 .1396364.07006061.128.18593939l-.0349091.58157576c0 .03466667-.0232727.08121212-.0930909.09309091l-.3369697.0230303v7.256z"/><path d="m81.5442424 9.06036364c.0581818 0 .0928485.03490909.0928485.09309091v1.41842425h-5.6395151c-.093091 0-.139394-.0695758-.1277576-.1861818l.0346666-.58109094c0-.03490909.0235152-.08169697.093091-.09309091l.3374545-.02327273v-7.256l-.3604848-.0230303c-.0814546 0-.1163637-.08145454-.1047273-.18618182l.0346666-.58133333c0-.05818182.0351516-.09309091.093091-.09309091h5.4419394v1.41866667c0 .09309091-.0700607.13963636-.1859394.12775757l-.5813334-.03466666c-.0349091 0-.0812121-.02327273-.0930909-.09309091l-.0232727-.33745455h-2.8952727v2.75612121h3.2787878v1.06981819h-3.2787878v3.03466666h3.0928484l.0235152-.36048485c0-.08145454.081697-.11636363.1859394-.10472727z"/><path d="m94.9498182 1.54860606c.0933333 0 .1396363.07006061.1277576.18593939l-.0344243.58157576c0 .03466667-.0232727.08121212-.0933333.09309091l-.3369697.0230303h-.0351515v4.81406061c0 2.34884849-.9183031 3.46521217-3.267394 3.46521217-2.2443636 0-3.2208485-.75587884-3.2208485-3.46521217v-4.81406061l-.3607272-.0230303c-.0814546 0-.1166061-.08145454-.1047273-.18618182l.0349091-.58133333c0-.05818182.0346667-.09309091.0933333-.09309091h1.9878788c.0933333 0 .1398788.07006061.1277576.18593939l-.0344243.58157576c0 .03466667-.0235151.08121212-.0933333.09309091l-.3364848.0230303v5.04654546c0 1.44193939.4298181 2.22109091 1.8950303 2.22109091 1.6283636 0 1.9997575-1 1.9997575-2.22109091v-5.04654546l-.36-.0230303c-.0814545 0-.116606-.08145454-.1049697-.18618182l.0351516-.58133333c0-.05818182.0349091-.09309091.0930909-.09309091z"/><path d="m104.694061 1.54860606c.093575 0 .140121.07006061.128242.18593939l-.034667.58157576c0 .03466667-.023757.08121212-.093575.09309091l-.336485.0230303h-.104728v8.13963638h-.872c-.057939 0-.093333-.0232727-.128242-.0695758l-4.7556363-6.65139391v5.83733333h.1042424l.3609697.02327273c.0812121 0 .1163637.08145455.1044849.1859394l-.0344243.58133335c0 .0584242-.0353939.0930909-.0933333.0930909h-1.9886061c-.0928485 0-.1393939-.0695758-.1277575-.1861818l.034909-.58109094c0-.03490909.0232728-.08169697.0928485-.09309091l.3372122-.02327273v-7.256l-.3607273-.0230303c-.0809697 0-.1158788-.08145454-.1042424-.18618182l.034909-.58133333c0-.05818182.0346667-.09309091.0928485-.09309091h1.2901818c.0703031 0 .1049697.03490909.1403637.08145455l4.6625455 6.51175757v-5.70957576l-.360485-.0230303c-.081212 0-.115879-.08145454-.104727-.18618182l.034909-.58133333c0-.05818182.035151-.09309091.093091-.09309091z"/><path d="m108.822788 9.71151515c.081697 0 .116364.08145455.104727.1859394l-.034667.58133335c0 .0584242-.035393.0930909-.093575.0930909h-1.988121c-.092607 0-.139152-.0695758-.128-.1861818l.035393-.58109094c0-.03490909.023031-.08169697.092607-.09309091l.337212-.02327273v-7.256l-.360243-.0230303c-.081212 0-.116121-.08145454-.104969-.18618182l.035393-.58133333c0-.05818182.034667-.09309091.092607-.09309091h1.988121c.093575 0 .139879.07006061.128242.18593939l-.034667.58157576c0 .03466667-.023757.08121212-.093575.09309091l-.336728.0230303v7.256z"/><path d="m118.276606 1.54860606c.093333 0 .139636.07006061.128242.18593939l-.034909.58157576c0 .03466667-.02303.08121212-.093333.09309091l-.337212.0230303-2.883879 7.86060608c-.057697.1745454-.185697.2790303-.371879.2790303l-.976969-.0346667c-.034667 0-.05794-.0118788-.081212-.0698182l-3.011879-8.03515148-.36-.0230303c-.081455 0-.116121-.08145454-.104485-.18618182l.034909-.58133333c0-.05818182.034667-.09309091.092364-.09309091h2.011636c.093576 0 .139879.07006061.128.18593939l-.034424.58157576c0 .03466667-.023515.08121212-.093576.09309091l-.33697.0230303 2.33697 6.55806061h.034909l2.326303-6.55806061-.360727-.0230303c-.081455 0-.116364-.08145454-.104727-.18618182l.034666-.58133333c0-.05818182.035152-.09309091.092849-.09309091z"/><path d="m125.300364 9.06036364c.058424 0 .093575.03490909.093575.09309091v1.41842425h-5.640242c-.092849 0-.139394-.0695758-.127758-.1861818l.034909-.58109094c0-.03490909.023031-.08169697.092849-.09309091l.337212-.02327273v-7.256l-.360485-.0230303c-.081212 0-.116121-.08145454-.104485-.18618182l.034909-.58133333c0-.05818182.03491-.09309091.092849-.09309091h5.442182v1.41866667c0 .09309091-.069818.13963636-.185697.12775757l-.581576-.03466666c-.035636 0-.081939-.02327273-.093333-.09309091l-.023273-.33745455h-2.89503v2.75612121h3.279272v1.06981819h-3.279272v3.03466666h3.093091l.023272-.36048485c0-.08145454.081455-.11636363.186182-.10472727z"/><path d="m129.928727 6.04872727c1.256243 0 1.977212-.54666666 1.977212-1.80218182 0-1.1980606-.686545-1.67466666-1.872242-1.67466666h-1.116121v3.47684848zm3.593212 3.66278788c.081213 0 .115879.08145455.104728.1859394l-.034909.58133335c0 .0584242-.034425.0930909-.092849.0930909h-1.326061l-1.976242-3.48824244h-1.27903v2.60460606l.360727.02327273c.080485 0 .115879.08145455.104242.1859394l-.034909.58133335c0 .0584242-.034666.0930909-.092606.0930909h-1.988848c-.093334 0-.139637-.0695758-.128-.1861818l.034666-.58109094c0-.03490909.024-.08169697.093334-.09309091l.33697-.02327273v-7.256l-.360243-.0230303c-.081697 0-.116364-.08145454-.104727-.18618182l.034666-.58133333c0-.05818182.035394-.09309091.093334-.09309091h2.627879c2.267394 0 3.337212.86060606 3.337212 2.69793939 0 1.17430303-.616 2.17430303-1.720485 2.59272728l1.650909 2.84896969z"/><path d="m140.743273 8.09527273c0 1.46496969-1.081455 2.53454547-3.116606 2.53454547-1.093091 0-1.965091-.2322424-2.59297-.4998788v-1.40703031c0-.10448485.081939-.16242424.221333-.1510303l.697697.04654545c.046061 0 .104.02303031.116364.10448485l.02303.62836364c.546667.12751515 1.092849.19709091 1.465455.19709091 1.057454 0 1.883394-.36024243 1.883394-1.32533334 0-1.03490909-.395394-1.24436363-2.186182-1.88339394-1.302061-.48872727-2.197576-1.15151515-2.197576-2.44242424 0-1.45333333 1.104243-2.41842424 3.069576-2.41842424.720485 0 1.40703.06981818 2.058909.23248485v1.52363636c0 .10448485-.082182.16266667-.221576.1510303l-.697697-.04654545c-.047272 0-.104485-.02351515-.116606-.10448485l-.022788-.62836364c-.314424-.03466666-.627878-.05793939-.91903-.05793939-1.081697 0-1.790788.49987879-1.790788 1.30230303 0 .83733333.488485 1.13963636 2.08194 1.70909091 1.662787.58181818 2.244121 1.37236364 2.244121 2.53527273"/><path d="m144.511273 9.71151515c.080969 0 .115636.08145455.104.1859394l-.034425.58133335c0 .0584242-.034909.0930909-.092848.0930909h-1.988364c-.093575 0-.140121-.0695758-.128727-.1861818l.035152-.58109094c0-.03490909.024-.08169697.093575-.09309091l.33697-.02327273v-7.256l-.360485-.0230303c-.081697 0-.116606-.08145454-.105212-.18618182l.035152-.58133333c0-.05818182.034909-.09309091.093575-.09309091h1.988364c.092848 0 .138909.07006061.127273.18593939l-.034425.58157576c0 .03466667-.023515.08121212-.092848.09309091l-.337455.0230303v7.256z"/><path d="m152.499636 1.54860606v1.41866667c0 .09309091-.069818.13963636-.185939.12775757l-.581576-.03466666c-.035151 0-.080969-.02327273-.093333-.09309091l-.023273-.33745455v-.01139394h-1.76703v7.06981818l.360727.02327273c.08097 0 .116121.08145455.104243.1859394l-.03491.58133335c0 .0584242-.034424.0930909-.09309.0930909h-1.988122c-.093333 0-.139636-.0695758-.128-.1861818l.034667-.58109094c0-.03490909.023273-.08169697.093333-.09309091l.33697-.02327273v-7.06981818h-1.639273l-.02303.36024243c0 .08169697-.081697.11636363-.186424.10496969l-.581334-.03515151c-.058181 0-.093333-.03466667-.093333-.09260606v-1.40727273z"/><path d="m160.337212 1.54860606c.092364 0 .139394.07006061.128.18593939l-.035636.58157576c0 .03466667-.023031.08121212-.092364.09309091l-.337454.0230303-2.534788 4.96533334v2.29066666l.360242.02327273c.081697 0 .116606.08145455.10497.1859394l-.034667.58133335c0 .0584242-.034667.0930909-.093091.0930909h-1.988606c-.092606 0-.139636-.0695758-.128-.1861818l.035394-.58109094c0-.03490909.022303-.08169697.092606-.09309091l.336727-.02327273v-2.31418181l-2.499393-4.94181819-.349091-.0230303c-.081213 0-.116364-.08145454-.10497-.18618182l.035394-.58133333c0-.05818182.034909-.09309091.092848-.09309091h1.988606c.092606 0 .139394.07006061.128.18593939l-.035394.58157576c0 .03466667-.02303.08121212-.092606.09309091l-.325575.0230303 1.81406 3.74424243h.034909l1.872243-3.74424243-.36097-.0230303c-.081212 0-.116121-.08145454-.104242-.18618182l.034424-.58133333c0-.05818182.035151-.09309091.093091-.09309091z"/><path d="m166.212364 6.04872727c0 1.52339394.348606 3.49963637 2.255757 3.49963637 1.581091 0 2.267152-1.34860606 2.267152-3.49963637 0-1.55830303-.383758-3.47684848-2.255515-3.47684848-1.907152 0-2.267394 1.96533333-2.267394 3.47684848zm5.894788.02303031c0 3.08169697-1.360243 4.56993942-3.639031 4.56993942-2.255757 0-3.639757-1.53478791-3.639757-4.56993942 0-2.18618182.825454-4.58109091 3.662545-4.58109091 2.430546 0 3.616243 1.86060606 3.616243 4.58109091z"/><path d="m179.07297 1.54860606v1.41866667c0 .09309091-.069818.13963636-.18594.12775757l-.581333-.03466666c-.035152 0-.081697-.02327273-.093091-.09309091l-.023515-.33745455h-2.906909v2.75612121h3.15103v1.06981819h-3.15103v3.23248484l.360727.02327273c.081212 0 .116606.08145455.104727.1859394l-.034909.58133335c0 .0584242-.035151.0930909-.093091.0930909h-1.988848c-.092364 0-.138909-.0695758-.127515-.1861818l.035151-.58109094c0-.03490909.022788-.08169697.092364-.09309091l.337454-.02327273v-7.256l-.36-.0230303c-.081697 0-.116363-.08145454-.104969-.18618182l.035151-.58133333c0-.05818182.034424-.09309091.092364-.09309091z"/><path d="m83.6426667 14.7699394c.2055757 0 .3083636.1544242.2826666.4113939l-.0770909 1.2850909c0 .0773334-.0516363.1801213-.2055757.2058182l-.72.051394-4.344 17.0947878c-.1546667.5655758-.6172122.8998788-1.1827879.8998788l-2.0048485-.0770909c-.2831515 0-.3859394-.1801212-.4632727-.4627879l-3.496-15.038303h-.0254546l-3.444606 14.369697c-.1287273.5144242-.4627879 1.2341818-1.3626667 1.2084848l-1.9277576-.0770909c-.2315151 0-.3854545-.1287273-.4627879-.4627879l-4.2157575-17.4547878-.7711515-.051394c-.1798788 0-.2569697-.1796363-.2317576-.4113939l.0773333-1.2850909c0-.1287273.0775758-.2058182.2055758-.2058182h4.2416969c.2055758 0 .3083637.1544242.2829091.4113939l-.0773333 1.2850909c0 .0773334-.0513939.1801213-.2055758.2058182l-.72.051394 3.2906667 14.9866666h.025697l3.6758788-15.7578182c.2055757-.8996363.6426666-1.2082424 1.2598788-1.1825454l1.4652121.0770909c.2567272.025697.3595151.1544242.4368485.4884849l3.7272727 16.3747878h.0259394l3.444606-14.9866666-.7711515-.051394c-.1798788 0-.2572121-.1796363-.2315151-.4113939l.0770909-1.2850909c0-.1287273.0773333-.2058182.2055757-.2058182z"/><path d="m97.8824242 31.3762424c.1282425 0 .2055758.0770909.2055758.2058182v3.1362424h-12.4671515c-.2055758 0-.3086061-.1544242-.2829091-.4113939l.0773333-1.2853333c0-.077091.0511515-.1801213.2055758-.2058182l.7452121-.051394v-16.0407272l-.7968485-.051394c-.1798788 0-.2569697-.1796363-.2312727-.4113939l.0773333-1.2850909c0-.1287273.0768485-.2058182.2055758-.2058182h12.0305454v3.1364848c0 .2053334-.1546666.3081213-.4113939.2826667l-1.2853333-.0773333c-.0773334 0-.1801212-.051394-.2060606-.2053334l-.0509091-.7456969h-6.4007273v6.0923636h7.2489697v2.3650909h-7.2489697v6.7093334h6.8378182l.0513939-.797091c0-.1796363.1798788-.2569697.4111515-.2312727z"/><path d="m112.637333 29.2429091c0 3.2387879-2.390545 5.6038788-6.889454 5.6038788-2.416485 0-4.344243-.5144243-5.732364-1.105697v-3.1100606c0-.2315151.179637-.3602424.488485-.3345455l1.542061.1030304c.10303 0 .231757.0516363.257454.2315151l.051152 1.3878788c1.208.2829091 2.416727.4368485 3.239272.4368485 2.339879 0 4.163879-.7966061 4.163879-2.9301818 0-2.288-.873697-2.7505455-4.832727-4.1646061-2.87903-1.0797576-4.858424-2.5449697-4.858424-5.398303 0-3.2130909 2.442424-5.3469091 6.786909-5.3469091 1.593939 0 3.11006.1541818 4.549576.5139394v3.3677575c0 .2312728-.179637.36-.488.3340607l-1.542304-.1027879c-.10303 0-.231757-.0511515-.257212-.2312728l-.051151-1.3881212c-.694546-.0770909-1.388606-.1284848-2.030788-.1284848-2.390788 0-3.959273 1.1052121-3.959273 2.8790303 0 1.8506667 1.08 2.5192727 4.601455 3.7786667 3.676121 1.2853333 4.961454 3.0336969 4.961454 5.6043636"/><path d="m128.00897 14.7699394v3.1364848c0 .2053334-.154425.3081213-.411394.2826667l-1.285334-.0773333c-.076606 0-.180121-.051394-.205575-.2053334l-.051152-.7456969v-.025697h-3.907879v15.6293333l.797091.051394c.180121 0 .25697.1801212.231273.4116363l-.077333 1.2850909c0 .1287273-.076606.2058182-.205576.2058182h-4.395394c-.205818 0-.308606-.1544242-.282909-.4113939l.077091-1.2853333c0-.077091.051151-.1801213.205818-.2058182l.745212-.051394v-15.6293333h-3.624485l-.051151.7968485c0 .1798788-.180364.2572121-.411394.2315151l-1.285091-.0773333c-.129212 0-.205818-.0770909-.205818-.2055758v-3.1105454z"/><path d="m142.429333 31.3762424c.128728 0 .205576.0770909.205576.2058182v3.1362424h-12.467636c-.205818 0-.308606-.1544242-.282667-.4113939l.076849-1.2853333c0-.077091.052121-.1801213.205818-.2058182l.745939-.051394v-16.0407272l-.797091-.051394c-.180121 0-.257454-.1796363-.231515-.4113939l.076849-1.2850909c0-.1287273.07709-.2058182.205818-.2058182h12.030545v3.1364848c0 .2053334-.153697.3081213-.411394.2826667l-1.285091-.0773333c-.077333 0-.179878-.051394-.205575-.2053334l-.051637-.7456969h-6.400727v6.0923636h7.249454v2.3650909h-7.249454v6.7093334h6.838061l.051151-.797091c0-.1796363.180364-.2569697.411394-.2312727z"/><g transform="translate(144.969697 14.545455)"><path d="m6.25042424 10.1728485c2.77624243 0 4.37018186-1.20824244 4.37018186-3.98448486 0-2.64775758-1.5166061-3.70157576-4.13890913-3.70157576h-2.46763636v7.68606062zm7.94351516 8.0974545c.1801212 0 .2564848.1801212.2310303.4116364l-.0768485 1.2850909c0 .1287273-.0773333.2058182-.2060606.2058182h-2.9301818l-4.37042425-7.712h-2.82739394v5.7580606l.79684848.0513939c.17963636 0 .25672727.1801212.23151515.4116364l-.07757576 1.2850909c0 .1287273-.0770909.2058182-.2050909.2058182h-4.39612122c-.20581818 0-.30860606-.1544243-.28242424-.411394l.07660606-1.2853333c0-.0770909.05163637-.1801212.20581818-.2058182l.74569697-.0513939v-16.04072728l-.79684848-.05139394c-.18036364 0-.25745455-.17963636-.23127273-.41139394l.07660606-1.28509091c0-.12872727.07757576-.20581818.20581818-.20581818h5.80969697c5.01309087 0 7.37769697 1.90230303 7.37769697 5.96387879 0 2.59636363-1.3631515 4.80703026-3.80436363 5.73260606l3.65018183 6.2979394z"/><path d="m33.9090909.22448485c.2058182 0 .3088485.15442424.2829091.41139394l-.0770909 1.28509091c0 .07733333-.0509091.18012121-.2058182.20581818l-.7449697.05139394h-.2312727v17.99466668h-1.928c-.1289697 0-.2058182-.0516364-.2829091-.1544243l-10.5139394-14.70399996v12.90448486h.2315152l.7968484.0513939c.1798788 0 .2574546.1801212.2312728.4116364l-.0770909 1.2850909c0 .1287273-.077091.2058182-.2058182.2058182h-4.3956364c-.2055757 0-.3088485-.1544243-.2826667-.411394l.077091-1.2853333c0-.0770909.050909-.1801212.2055757-.2058182l.7452121-.0513939v-16.04072728l-.7970909-.05139394c-.1793939 0-.2569697-.17963636-.2307879-.41139394l.077091-1.28509091c0-.12872727.0773333-.20581818.2055757-.20581818h2.8533333c.1539394 0 .2312728.07709091.3086061.18012121l10.3078788 14.39563634v-12.62206058l-.7968485-.05139394c-.1798788 0-.2564848-.17963636-.2312727-.41139394l.0773333-1.28509091c0-.12872727.0768485-.20581818.2055758-.20581818z"/></g><path d="m69.4094545 49.7275152-2.8593939-8.117091h-.0218182l-2.7061818 8.117091zm4.8174546 4.5093333c.1541818 0 .2201212.1541818.1980606.352l-.0659394 1.0998788c0 .1100606-.0661818.176-.153697.176h-3.8496969c-.176 0-.2642425-.1321212-.2419394-.352l.0659394-1.0998788c0-.0659394.0436363-.1539394.176-.176l.6157575-.0438788-.8576969-2.441697h-6.9733334l-.8138181 2.441697.6816969.0438788c.1539394 0 .2201212.1541818.1980606.352l-.0659394 1.0998788c0 .1100606-.0659394.176-.176.176h-3.7175757c-.176 0-.2642424-.1321212-.2419394-.352l.0659394-1.0998788c0-.0659394.0438788-.1539394.176-.176l.616-.0438788 4.9270303-13.7265455-.6598788-.0438787c-.153697 0-.2198788-.1539394-.1978182-.352l.0659394-1.0998788c0-.1100606.0661818-.1757576.1764849-.1757576h3.4972121l5.8955151 15.3980606z"/><path d="m88.1726061 38.7949091c.1752727 0 .2637575.1316364.2416969.3517576l-.0664242 1.0996363c0 .0661818-.0431515.1541818-.1752727.1762425l-.6383031.0438787h-.0659394v9.1069091c0 4.4436364-1.7376969 6.555394-6.1813333 6.555394-4.2455758 0-6.0933333-1.4300606-6.0933333-6.555394v-9.1069091l-.681697-.0438787c-.1541818 0-.2201212-.1539394-.1980606-.352l.065697-1.0998788c0-.1100606.0664242-.1757576.1762424-.1757576h3.7614545c.176 0 .264.1316364.2421819.3517576l-.0661819 1.0996363c0 .0661818-.0438788.1541818-.176.1762425l-.6378181.0438787v9.5469091c0 2.7277576.8138181 4.201697 3.5854545 4.201697 3.08 0 3.7835151-1.8918788 3.7835151-4.201697v-9.5469091l-.6816969-.0438787c-.1541818 0-.2201212-.1539394-.1980606-.352l.0661818-1.0998788c0-.1100606.0659394-.1757576.1757576-.1757576z"/><path d="m100.643879 51.1791515c0 2.7718788-2.045576 4.795394-5.8955154 4.795394-2.0673939 0-3.7170909-.44-4.9052121-.945697v-2.6615758c0-.1980606.1541818-.3083636.4181818-.2860606l1.3195152.088c.088 0 .1980606.0438788.2201212.1980606l.0436364 1.1876364c1.0344242.2421818 2.0681212.3738182 2.7718787.3738182 2.001697 0 3.5636364-.681697 3.5636364-2.507394 0-1.9580606-.7473939-2.3536969-4.1350303-3.5636363-2.4642424-.9238788-4.1578182-2.177697-4.1578182-4.619394 0-2.7498182 2.089697-4.5757575 5.8072728-4.5757575 1.3638787 0 2.6620606.1323636 3.8938181.4404848v2.8814545c0 .1978182-.1544242.3076364-.4179394.2858182l-1.32-.088c-.0882424 0-.1985454-.0438788-.2201212-.1978182l-.0436363-1.1881212c-.5944243-.0659394-1.1886061-.1098181-1.7379394-.1098181-2.0460606 0-3.3876364.9456969-3.3876364 2.4635151 0 1.584.9238788 2.1558788 3.9369697 3.233697 3.145697 1.0998788 4.2458184 2.5956363 4.2458184 4.7953939"/><path d="m114.105455 38.7949091v2.6836364c0 .1757575-.132364.264-.352243.2419393l-1.099879-.0661818c-.065697 0-.153939-.0438788-.175272-.1757575l-.044849-.6380607v-.0218181h-3.343757v13.374303l.681939.0438788c.153939 0 .220606.1541818.198788.352l-.066424 1.0998788c0 .1100606-.06594.176-.176.176h-3.761697c-.175516 0-.263758-.1321212-.241455-.352l.065939-1.0998788c0-.0659394.043637-.1539394.175516-.176l.63806-.0438788v-13.374303h-3.101576l-.043636.6816969c0 .1539394-.154182.2201212-.352.1980606l-1.100606-.0661818c-.109333 0-.17503-.0659394-.17503-.1757576v-2.6615757z"/><path d="m121.03297 47.3078788c2.376242 0 3.739878-1.0341818 3.739878-3.4099394 0-2.265697-1.297212-3.1675152-3.541818-3.1675152h-2.111272v6.5774546zm6.797333 6.9289697c.154182 0 .220121.1541818.198545.352l-.066181 1.0998788c0 .1100606-.066182.176-.176485.176h-2.507394l-3.739394-6.5992728h-2.419636v4.9275152l.681939.0438788c.153697 0 .219636.1541818.197818.352l-.065697 1.0998788c0 .1100606-.065939.176-.176485.176h-3.761454c-.175758 0-.263515-.1321212-.242424-.352l.066666-1.0998788c0-.0659394.043637-.1539394.175758-.176l.63806-.0438788v-13.7265455l-.681697-.0438787c-.153697 0-.219878-.1539394-.198787-.352l.066666-1.0998788c0-.1100606.06594-.1757576.175758-.1757576h4.971636c4.289697 0 6.313212 1.6276364 6.313212 5.1030303 0 2.2215758-1.165575 4.113697-3.255515 4.905697l3.123879 5.3893333z"/><path d="m139.444121 49.7275152-2.859879-8.117091h-.021333l-2.706909 8.117091zm4.817455 4.5093333c.153939 0 .220121.1541818.197818.352l-.065455 1.0998788c0 .1100606-.066181.176-.154424.176h-3.849454c-.175758 0-.264-.1321212-.24194-.352l.066182-1.0998788c0-.0659394.043394-.1539394.175758-.176l.615757-.0438788-.857697-2.441697h-6.973091l-.81406 2.441697.681697.0438788c.154666 0 .220363.1541818.197818.352l-.065455 1.0998788c0 .1100606-.066424.176-.175757.176h-3.718061c-.175515 0-.264-.1321212-.241697-.352l.066182-1.0998788c0-.0659394.043394-.1539394.175515-.176l.616243-.0438788 4.926787-13.7265455-.659394-.0438787c-.154424 0-.219878-.1539394-.198303-.352l.066667-1.0998788c0-.1100606.065455-.1757576.175758-.1757576h3.497212l5.89503 15.3980606z"/><path d="m156.579636 53.0050909c.110303 0 .175273.0659394.175273.176v2.6836364h-10.668364c-.176 0-.263515-.1321212-.242424-.352l.066424-1.0998788c0-.0659394.044122-.1539394.176-.176l.637819-.0438788v-13.7265455l-.681697-.0438787c-.153455 0-.219637-.1539394-.198546-.352l.066424-1.0998788c0-.1100606.065697-.1757576.176-.1757576h3.761697c.176 0 .263758.1316364.241697.3517576l-.065697 1.0996363c0 .0661818-.043636.1541818-.176.1762425l-.63806.0438787v13.3524849h5.873212l.044121-.6819394c0-.1539394.153697-.2198788.352-.1980606z"/><g transform="translate(158.060606 38.787879)"><path d="m4.06084848 15.4489697c.15418182 0 .22012122.1541818.19806061.352l-.06593939 1.0998788c0 .1100606-.06618182.176-.17624243.176h-3.76096969c-.17672728 0-.26424243-.1321212-.24242425-.352l.06569697-1.0998788c0-.0659394.04412122-.1539394.17672728-.176l.63757575-.0438788v-13.72654545l-.68193939-.04387878c-.15369697 0-.21987879-.1539394-.19806061-.352l.06569697-1.09987879c0-.11006061.06666667-.17575758.17672728-.17575758h3.76096969c.17624243 0 .26424243.13163637.24218182.35175758l-.06593939 1.09963636c0 .06618182-.04387879.15418182-.17624243.17624243l-.63757575.04387878v13.72654545z"/><path d="m16.0935758 10.9396364-2.8596364-8.11709095h-.0218182l-2.7061818 8.11709095zm4.8172121 4.5093333c.1544242 0 .2196363.1541818.1980606.352l-.0661818 1.0998788c0 .1100606-.0661819.176-.153697.176h-3.8499394c-.1752727 0-.264-.1321212-.2419394-.352l.0666667-1.0998788c0-.0659394.0438788-.1539394.1752727-.176l.616-.0438788-.8579394-2.441697h-6.97333332l-.81333334 2.441697.68145455.0438788c.15418182 0 .22036363.1541818.19854545.352l-.06666666 1.0998788c0 .1100606-.06521213.176-.17551516.176h-3.71757575c-.17648485 0-.26448485-.1321212-.24218182-.352l.06569697-1.0998788c0-.0659394.04436363-.1539394.17648485-.176l.61575757-.0438788 4.92703026-13.72654545-.6596363-.04387878c-.1534546 0-.2198788-.1539394-.1973334-.352l.0649697-1.09987879c0-.11006061.0664243-.17575758.1764849-.17575758h3.4979394l5.8952727 15.3980606z"/></g><path d="m31.352 9.13163636h-1.1282424v-1.80290909h1.1042424c.0104242.02933334.0186667.08533334.0186667.16 0 .05866667-.0055758.10933334-.0186667.16533334h-.7229091v.38933333h.6109091c.0106667.02933333.0186667.08266667.0186667.15733333 0 .05866667-.0055758.10666667-.0186667.16266667h-.6109091v.44266667h.7469091c.0106667.02957575.0184242.08557575.0184242.16024242 0 .05866667-.0050909.10933333-.0184242.16533333"/><path d="m32.2024242 7.62739394c-.0586666 0-.1306666.00266667-.176.00533333v.53333334h.1333334c.2189091 0 .3146666-.08.3146666-.27733334 0-.19733333-.0957575-.26133333-.272-.26133333zm.7709091 1.50157576c-.0693333.01066666-.1413333.016-.224.016-.0749091 0-.1493333-.00266667-.2-.01333334l-.3655757-.64824242h-.1573334v.64824242c-.0666666.01066667-.1226666.01333334-.1946666.01333334-.064 0-.12-.00266667-.1866667-.01333334v-1.80290909c.1226667-.008.3786667-.01333333.5333333-.01333333.4533334 0 .6802425.16.6802425.576 0 .22133333-.1335758.44266667-.32.52266667z"/><path d="m34.2906667 9.13163636h-1.1282425v-1.80290909h1.1042425c.0106666.02933334.0186666.08533334.0186666.16 0 .05866667-.0055757.10933334-.0186666.16533334h-.7229091v.38933333h.6109091c.0106666.02933333.0186666.08266667.0186666.15733333 0 .05866667-.0055757.10666667-.0186666.16266667h-.6109091v.44266667h.7469091c.0106666.02957575.0184242.08557575.0184242.16024242 0 .05866667-.0050909.10933333-.0184242.16533333"/><path d="m30.7813333 10.1149091c-.0535757 0-.1229091.0026667-.1762424.0053333v.5306667h.1655758c.2050909 0 .3146666-.0533333.3146666-.272 0-.1866667-.0933333-.264-.304-.264zm.0106667.856h-.1869091v.6455757c-.0506667.008-.112.0133334-.192.0133334-.072 0-.1386667-.0053334-.1893333-.0133334v-1.8004848c.1549091-.00775758.3893333-.01575758.5413333-.01575758.4082424 0 .7042424.14133334.7042424.56533338 0 .4133333-.2589091.6053333-.6773333.6053333z"/><path d="m32.8329697 11.6164848h-1.1282424v-1.80290904h1.1042424c.0106667.02933333.0186667.08533333.0186667.16 0 .05866664-.0053334.10933334-.0186667.16533334h-.7229091v.3893333h.6106667c.0109091.0293334.0186666.0826667.0186666.1573334 0 .0586666-.0050909.1066666-.0186666.1626666h-.6106667v.4426667h.7469091c.0104242.0295757.0186667.0855757.0186667.1602424 0 .0586667-.0055758.1093333-.0186667.1653333"/><path d="m33.6530909 10.1122424c-.0586667 0-.1306667.0026667-.176.0053334v.5333333h.1333333c.2186667 0 .3146667-.08.3146667-.2773333 0-.1973334-.096-.2613334-.272-.2613334zm.7706667 1.5013334c-.0690909.010909-.1413334.0162424-.224.0162424-.0744243 0-.1493334-.0026667-.2-.0133334l-.3653334-.6482424h-.1573333v.6482424c-.0666667.0106667-.1226667.0133334-.1946667.0133334-.0642424 0-.12-.0026667-.1866666-.0133334v-1.80290904c.1224242-.008.3786666-.01333334.5333333-.01333334.4533333 0 .68.16.68.57599998 0 .2213334-.1330909.4426667-.32.5226667z"/><path d="m38.1027879 8.44872727-.1573334-.50933333c-.0186666-.05866667-.0373333-.13333333-.0533333-.216h-.0053333c-.0133334.08266667-.0346667.15733333-.0533334.216l-.1493333.50933333zm.6373333.68290909c-.0346667.008-.1173333.01333334-.2053333.01333334-.0693334 0-.1493334-.008-.184-.01333334l-.1333334-.36557575h-.6402424l-.1253333.36557575c-.0584243.008-.128.01333334-.1973333.01333334-.0693334 0-.1493334-.00533334-.1893334-.01333334l.6295758-1.80290909c.0373333-.008.1253333-.01333333.184-.01333333.072 0 .1573333.00533333.1866666.01333333z"/><path d="m39.4545455 7.62739394c-.0586667 0-.1306667.00266667-.176.00533333v.53333334h.1333333c.2189091 0 .3149091-.08.3149091-.27733334 0-.19733333-.096-.26133333-.2722424-.26133333zm.770909 1.50157576c-.0693333.01066666-.1413333.016-.224.016-.0746666 0-.1493333-.00266667-.2-.01333334l-.3655757-.64824242h-.1573333v.64824242c-.0664243.01066667-.1226667.01333334-.1946667.01333334-.064 0-.12-.00266667-.1866667-.01333334v-1.80290909c.1226667-.008.3786667-.01333333.5333334-.01333333.4533333 0 .6802424.16.6802424.576 0 .22133333-.1333334.44266667-.32.52266667z"/><path d="m37.928 10.1389091h-.4775758v1.4775757c-.0506666.008-.1224242.0133334-.1890909.0133334-.0669091 0-.1389091-.0053334-.1922424-.0133334v-1.4775757h-.4773333c-.0106667-.0346667-.0186667-.1173333-.0186667-.16266668 0-.04533333.0106667-.128.0213333-.16266666h1.3335758c.0106667.03466666.0186667.11733333.0186667.16266666 0 .04533338-.008.12799998-.0186667.16266668"/><path d="m39.2753939 11.6164848h-1.1282424v-1.80290904h1.1042424c.0106667.02933333.0186667.08533333.0186667.16 0 .05866664-.0053333.10933334-.0186667.16533334h-.7226666v.3893333h.6106666c.0106667.0293334.0186667.0826667.0186667.1573334 0 .0586666-.0053333.1066666-.0186667.1626666h-.6106666v.4426667h.7466666c.0106667.0295757.0186667.0855757.0186667.1602424 0 .0586667-.0053333.1093333-.0186667.1653333"/><path d="m40.0746667 11.6431515c-.1949091 0-.4082425-.0373333-.5602425-.1066667-.008-.0373333-.0133333-.0853333-.0133333-.128 0-.064.008-.1253333.0266667-.1975757.1573333.0642424.3653333.1042424.528.1042424.1895757 0 .2909091-.0882424.2909091-.208 0-.1335757-.0853334-.1895757-.3442425-.2695757-.288-.088-.4986666-.2266667-.4986666-.536 0-.33066671.2853333-.51466671.6615757-.51466671.1730909 0 .328.02666667.432.06133333.008.02933334.0133334.07733334.0133334.14666667 0 .05066671-.0053334.12800001-.016.17066671-.1333334-.0346667-.2855758-.0533334-.408-.0533334-.2002425 0-.3095758.0666667-.3095758.1733334 0 .1253333.0986667.176.3389091.2506666.288.0906667.5013333.2266667.5013333.5466667 0 .3493333-.2746666.5602424-.6426666.5602424"/><path d="m12.0724848 8.34206061c.04.112.08.23733333.0989091.344h.0053334c.0184242-.10666667.056-.232.096-.344l.1973333-.57066667c.0504242-.14666667.08-.288.0824242-.44266667.0535758-.008.1282425-.01333333.1895758-.01333333.056 0 .136.00533333.184.01333333 0 .17842425-.032.34933334-.104.53866667l-.4829091 1.26424242c-.0317576.008-.1064242.01333334-.1706667.01333334-.072 0-.1306666-.00533334-.1786666-.01333334l-.4746667-1.25890909c-.072-.18933333-.104-.36557575-.104-.544.048-.008.112-.01333333.192-.01333333.0613333 0 .1386667.00533333.1866667.01333333 0 .16533334.0293333.296.08.44266667z"/><path d="m13.5749091 9.13163636c-.0543547.008-.1201526.01333334-.2059759.01333334-.0772409 0-.1487603-.00533334-.203115-.01333334v-1.80290909c.0543547-.008.1344564-.01333333.2059758-.01333333.0801017 0 .1516211.00533333.2031151.01333333z"/><path d="m15.1231515 7.65406061h-.4773333v1.47757575c-.0506667.008-.1226667.01333334-.1893334.01333334-.0666666 0-.1386666-.00533334-.192-.01333334v-1.47757575h-.4773333c-.0106667-.03466667-.0189091-.11733334-.0189091-.16266667s.0109091-.128.0215758-.16266667h1.3333333c.0106667.03466667.0186667.11733334.0186667.16266667s-.008.128-.0186667.16266667"/><path d="m12.3166061 10.9335758-.1573334-.5093334c-.0186666-.0586666-.0375757-.1333333-.0535757-.216h-.0050909c-.0135758.0826667-.0346667.1573334-.0535758.216l-.1490909.5093334zm.6373333.682909c-.0346667.008-.1173333.0133334-.2053333.0133334-.0693334 0-.1493334-.008-.184-.0133334l-.1333334-.3655757h-.6402424l-.1253333.3655757c-.0586667.008-.128.0133334-.1973334.0133334-.0693333 0-.1493333-.0053334-.1893333-.0133334l.6295758-1.80290904c.0370909-.008.1253333-.01333334.1837575-.01333334.0722425 0 .1575758.00533334.1869091.01333334z"/><path d="m14.9886061 11.6164848c-.032.008-.104.0133334-.1786667.0133334-.08 0-.1546667-.008-.1866667-.0133334l-.032-1.082909-.3946666.9122424c-.0293334.0106666-.0933334.016-.1333334.016-.0482424 0-.1066666-.0053334-.136-.0133334l-.3949091-.914909-.0346666 1.082909c-.0346667.008-.1173334.0133334-.1890909.0133334-.0429091 0-.1149091-.0053334-.1629091-.0133334l.0773333-1.80290904c.0506667-.00533334.1013333-.01333334.1546667-.01333334.064 0 .1253333.00533334.1573333.01333334l.5282424 1.22424244.5306667-1.22424244c.0533333-.008.1066667-.01333334.1546667-.01333334.0613333 0 .1173333.00533334.1573333.01333334z"/><path d="m18.8802424 9.13163636h-1.1282424v-1.80290909h1.1042424c.0106667.02933334.0184243.08533334.0184243.16 0 .05866667-.0053334.10933334-.0184243.16533334h-.7229091v.38933333h.6106667c.0109091.02933333.0186667.08266667.0186667.15733333 0 .05866667-.0050909.10666667-.0186667.16266667h-.6106667v.44266667h.7469091c.0106667.02957575.0184243.08557575.0184243.16024242 0 .05866667-.0053334.10933333-.0184243.16533333"/><path d="m19.3010909 8.64363636.3413333-.46424242-.312-.43466667c-.1013333-.13866666-.1653333-.26666666-.1866666-.416.0426666-.008.1306666-.01333333.1866666-.01333333.0666667 0 .144.00533333.1893334.01333333.0133333.11733334.08.21333334.1493333.31466667l.1866667.272.192-.26933333c.064-.09066667.1253333-.20533334.136-.31733334.0453333-.00533333.1253333-.01333333.1895757-.01333333.0584243 0 .1384243.00533333.1813334.01333333-.0213334.17066667-.0906667.30133334-.2002425.45333334l-.2826666.38933333.3415757.48c.12.16533333.176.32824242.1866667.48024242-.0453333.008-.1229091.01333334-.1895758.01333334-.0586666 0-.136-.00533334-.1866666-.01333334-.008-.11733333-.048-.22957575-.1146667-.33090909l-.2533333-.38133333-.248.37357576c-.064.09866666-.1013334.22133333-.1013334.33866666-.0426666.008-.1333333.01333334-.192.01333334-.064 0-.1413333-.008-.1866666-.01333334.0053333-.16266666.0346666-.29890909.1733333-.488"/><path d="m21.9495758 7.70472727c-.128-.04-.288-.06933333-.416-.06933333-.3042425 0-.5015758.216-.5015758.60266667 0 .35466666.1549091.58690909.4989091.58690909.128 0 .272-.02666667.4-.06666667.0186667.04775758.032.12266667.032.17866667 0 .04533333-.0026667.10133333-.008.12533333-.1333333.06133333-.304.096-.4613333.096-.5735758 0-.8562425-.34690909-.8562425-.91224242 0-.54933334.304-.944.8722425-.944.1386666 0 .32.03442424.448.09066666.008.02666667.0106666.08533334.0106666.12 0 .08266667-.0106666.16-.0186666.192"/><path d="m18.3561212 10.1149091c-.2293333 0-.36.176-.36.6 0 .4242424.1306667.6002424.36.6002424s.36-.176.36-.6002424c0-.424-.1306667-.6-.36-.6zm0 1.5282424c-.4933333 0-.7546667-.3415757-.7546667-.9282424s.2613334-.92800001.7546667-.92800001.7549091.34133331.7549091.92800001-.2615758.9282424-.7549091.9282424z"/><path d="m20.4295758 11.6164848h-1.1042425v-1.80290904c.0506667-.008.12-.01333334.1866667-.01333334.0746667 0 .1466667.00533334.1946667.01333334v1.47733334h.7229091c.0104242.0295757.0186666.0855757.0186666.1602424 0 .0586667-.0055757.1093333-.0186666.1653333"/><path d="m21.9454545 10.9309091c0 .4589091-.176.7122424-.688.7122424-.5173333 0-.6802424-.2533333-.6802424-.7122424v-1.11733334c.0535758-.008.1229091-.01333334.1866667-.01333334.0749091 0 .1415757.00533334.1949091.01333334v1.14400004c0 .2455757.0693333.384.3013333.384s.312-.1384243.312-.384v-1.14400004c.048-.008.128-.01333334.1893333-.01333334.0586667 0 .1386667.00533334.184.01333334z"/></g></g></svg>